<svg width="20" height="16" viewBox="0 0 20 16" fill="none" xmlns="http://www.w3.org/2000/svg">
<path d="M2.38803 14.923L2.72852 14.2548H2.72852L2.38803 14.923ZM1.07698 13.612L0.408726 13.9525H0.408726L1.07698 13.612ZM18.923 13.612L19.5913 13.9525L18.923 13.612ZM17.612 14.923L17.2715 14.2548V14.2548L17.612 14.923ZM18.923 2.38803L19.5913 2.04754V2.04754L18.923 2.38803ZM17.612 1.07698L17.2715 1.74524V1.74524L17.612 1.07698ZM1.07698 2.38803L1.74524 2.72852L1.07698 2.38803ZM2.38803 1.07698L2.72852 1.74524L2.38803 1.07698ZM11.8418 7.56747L11.3814 6.97546V6.97546L11.8418 7.56747ZM8.15818 7.56747L7.69772 8.15949L8.15818 7.56747ZM18.5 5.55V10.45H20V5.55H18.5ZM14.45 14.5H5.55V16H14.45V14.5ZM1.5 10.45V5.55H0V10.45H1.5ZM5.55 1.5H14.45V0H5.55V1.5ZM5.55 14.5C4.69755 14.5 4.10331 14.4994 3.64068 14.4616C3.1868 14.4245 2.92604 14.3554 2.72852 14.2548L2.04754 15.5913C2.49175 15.8176 2.97189 15.912 3.51853 15.9566C4.05641 16.0006 4.7223 16 5.55 16V14.5ZM0 10.45C0 11.2777 -0.000583291 11.9436 0.0433634 12.4815C0.0880254 13.0281 0.182385 13.5082 0.408726 13.9525L1.74524 13.2715C1.6446 13.074 1.57546 12.8132 1.53838 12.3593C1.50058 11.8967 1.5 11.3025 1.5 10.45H0ZM2.72852 14.2548C2.30516 14.0391 1.96095 13.6948 1.74524 13.2715L0.408726 13.9525C0.768251 14.6581 1.34193 15.2317 2.04754 15.5913L2.72852 14.2548ZM18.5 10.45C18.5 11.3025 18.4994 11.8967 18.4616 12.3593C18.4245 12.8132 18.3554 13.074 18.2548 13.2715L19.5913 13.9525C19.8176 13.5082 19.912 13.0281 19.9566 12.4815C20.0006 11.9436 20 11.2777 20 10.45H18.5ZM14.45 16C15.2777 16 15.9436 16.0006 16.4815 15.9566C17.0281 15.912 17.5082 15.8176 17.9525 15.5913L17.2715 14.2548C17.074 14.3554 16.8132 14.4245 16.3593 14.4616C15.8967 14.4994 15.3025 14.5 14.45 14.5V16ZM18.2548 13.2715C18.039 13.6948 17.6948 14.0391 17.2715 14.2548L17.9525 15.5913C18.6581 15.2317 19.2317 14.6581 19.5913 13.9525L18.2548 13.2715ZM20 5.55C20 4.7223 20.0006 4.05641 19.9566 3.51853C19.912 2.97189 19.8176 2.49175 19.5913 2.04754L18.2548 2.72852C18.3554 2.92604 18.4245 3.1868 18.4616 3.64068C18.4994 4.10331 18.5 4.69755 18.5 5.55H20ZM14.45 1.5C15.3025 1.5 15.8967 1.50058 16.3593 1.53838C16.8132 1.57546 17.074 1.6446 17.2715 1.74524L17.9525 0.408726C17.5082 0.182385 17.0281 0.0880254 16.4815 0.0433634C15.9436 -0.000583291 15.2777 0 14.45 0V1.5ZM19.5913 2.04754C19.2317 1.34193 18.6581 0.768251 17.9525 0.408725L17.2715 1.74524C17.6948 1.96095 18.039 2.30516 18.2548 2.72852L19.5913 2.04754ZM1.5 5.55C1.5 4.69755 1.50058 4.10331 1.53838 3.64068C1.57546 3.1868 1.6446 2.92604 1.74524 2.72852L0.408726 2.04754C0.182385 2.49175 0.0880254 2.97189 0.0433634 3.51853C-0.000583291 4.05641 0 4.7223 0 5.55H1.5ZM5.55 0C4.7223 0 4.05641 -0.000583291 3.51853 0.0433634C2.97189 0.0880254 2.49175 0.182385 2.04754 0.408726L2.72852 1.74524C2.92604 1.6446 3.1868 1.57546 3.64068 1.53838C4.10331 1.50058 4.69755 1.5 5.55 1.5V0ZM1.74524 2.72852C1.96095 2.30516 2.30516 1.96095 2.72852 1.74524L2.04754 0.408726C1.34193 0.768251 0.768251 1.34193 0.408726 2.04754L1.74524 2.72852ZM18.5395 1.40799L11.3814 6.97546L12.3023 8.15949L19.4605 2.59201L18.5395 1.40799ZM8.61863 6.97546L1.46046 1.40799L0.539545 2.59201L7.69772 8.15949L8.61863 6.97546ZM11.3814 6.97546C10.5689 7.6074 9.43113 7.6074 8.61863 6.97546L7.69772 8.15949C9.05189 9.21272 10.9481 9.21273 12.3023 8.15949L11.3814 6.97546Z" fill="#F8F8F8" fill-opacity="0.5"/>
</svg>
