        <svg width="112" height="26" viewBox="0 0 112 26" fill="none" xmlns="http://www.w3.org/2000/svg">
<path opacity="0.8" d="M108.644 20.3498C105.564 20.3498 103.52 18.5018 103.52 14.9458V9.98984H101.112V6.96584H103.52V2.48584H107.384V6.96584H111.248V9.98984H107.384V14.4138C107.384 16.0658 107.944 16.9338 109.708 16.9338L110.856 16.9058V20.0138C110.072 20.2378 109.428 20.3498 108.644 20.3498Z" fill="#F8F8F8" fill-opacity="0.95"/>
<path opacity="0.8" d="M95.8123 20.4341C92.6763 20.4341 90.4923 18.6421 90.2683 16.2061H93.9083C94.1043 17.1021 94.9163 17.4661 95.8123 17.4661C96.6523 17.4661 97.2403 17.1021 97.2403 16.4861C97.2403 14.5821 90.6043 15.8421 90.6043 10.6621C90.6043 8.36608 92.5363 6.68608 95.4763 6.65808C98.4443 6.63008 100.432 8.19808 100.628 10.7461H97.0443C96.9043 10.1021 96.3443 9.62608 95.4763 9.62608C94.6363 9.62608 94.1323 10.1021 94.1323 10.6621C94.1323 12.4541 100.88 11.4461 100.88 16.4861C100.88 18.9221 98.4723 20.4341 95.8123 20.4341Z" fill="#F8F8F8" fill-opacity="0.95"/>
<path opacity="0.8" d="M84.8017 20.1261V6.96608H88.6657V20.1261H84.8017ZM86.7337 4.97808C85.4177 4.97808 84.3257 3.97008 84.3257 2.68208C84.3257 1.36608 85.4177 0.330078 86.7337 0.330078C88.0497 0.330078 89.1417 1.36608 89.1417 2.68208C89.1417 3.97008 88.0497 4.97808 86.7337 4.97808Z" fill="#F8F8F8" fill-opacity="0.95"/>
<path opacity="0.8" d="M78.3274 20.1263V1.03027H82.1914V20.1263H78.3274Z" fill="#F8F8F8" fill-opacity="0.95"/>
<path opacity="0.8" d="M69.8104 20.4342C65.6384 20.4342 62.9224 17.4942 62.9224 13.5462C62.9224 9.6262 65.7224 6.6582 69.6984 6.6582C73.6744 6.6582 76.4184 9.6262 76.4184 13.5462L76.3904 14.8062H66.5064C66.9264 16.4862 68.1024 17.3262 69.7264 17.3262C71.2104 17.3262 71.9944 16.9622 72.5264 16.1502H76.0264C75.1864 19.2022 72.4144 20.4342 69.8104 20.4342ZM66.4784 12.2302H72.8904C72.6384 10.8022 71.2944 9.7942 69.6984 9.7942C68.0184 9.7942 66.8424 10.7742 66.4784 12.2302Z" fill="#F8F8F8" fill-opacity="0.7"/>
<path opacity="0.8" d="M57.1479 20.1263V1.03027H61.012V20.1263H57.1479Z" fill="#F8F8F8" fill-opacity="0.7"/>
<path opacity="0.8" d="M49.2857 20.4342C47.3537 20.4342 45.9537 19.5662 45.1697 18.1102V25.6702H41.3057V6.9662H44.7217L45.0857 9.1502C45.8697 7.6102 47.2977 6.6582 49.2857 6.6582C52.2257 6.6582 55.2497 8.9542 55.2497 13.5462C55.2497 18.1382 52.2257 20.4342 49.2857 20.4342ZM48.1937 17.0742C50.0697 17.0742 51.4417 15.7302 51.4417 13.5462C51.4417 11.4462 50.0977 10.0182 48.1937 10.0182C46.7937 10.0182 45.1417 11.1662 45.1417 13.5462C45.1417 16.0942 46.7377 17.0742 48.1937 17.0742Z" fill="#F8F8F8" fill-opacity="0.7"/>
<path opacity="0.8" d="M18.0181 12.7622C18.0181 8.9822 20.0061 6.6582 23.8981 6.6582C26.5021 6.6582 27.8461 8.1702 28.3781 9.0662H28.4341C28.9661 8.1702 30.3101 6.6582 32.9141 6.6582C36.8061 6.6582 38.7941 8.9822 38.7941 12.7622V20.1262H34.9301V13.0422C34.9301 11.1942 34.2021 10.0182 32.6341 10.0182C31.0661 10.0182 30.3381 11.1942 30.3381 13.0422V20.1262H26.4741V13.0422C26.4741 11.1942 25.7461 10.0182 24.1781 10.0182C22.6101 10.0182 21.8821 11.1942 21.8821 13.0422V20.1262H18.0181V12.7622Z" fill="#F8F8F8" fill-opacity="0.7"/>
<path opacity="0.8" d="M12.1034 20.1261V6.96608H15.9674V20.1261H12.1034ZM14.0354 4.97808C12.7194 4.97808 11.6274 3.97008 11.6274 2.68208C11.6274 1.36608 12.7194 0.330078 14.0354 0.330078C15.3514 0.330078 16.4434 1.36608 16.4434 2.68208C16.4434 3.97008 15.3514 4.97808 14.0354 4.97808Z" fill="#F8F8F8" fill-opacity="0.7"/>
<path opacity="0.8" d="M5.544 20.4341C2.408 20.4341 0.224 18.6421 0 16.2061H3.64C3.836 17.1021 4.648 17.4661 5.544 17.4661C6.384 17.4661 6.972 17.1021 6.972 16.4861C6.972 14.5821 0.336 15.8421 0.336 10.6621C0.336 8.36608 2.268 6.68608 5.208 6.65808C8.176 6.63008 10.164 8.19808 10.36 10.7461H6.776C6.636 10.1021 6.076 9.62608 5.208 9.62608C4.368 9.62608 3.864 10.1021 3.864 10.6621C3.864 12.4541 10.612 11.4461 10.612 16.4861C10.612 18.9221 8.204 20.4341 5.544 20.4341Z" fill="#F8F8F8" fill-opacity="0.7"/>
</svg>