<svg width="22" height="20" viewBox="0 0 22 20" fill="none" xmlns="http://www.w3.org/2000/svg">
<path d="M12.5894 0.997545C11.9495 -0.332515 10.0494 -0.332515 9.40946 0.997546L7.23644 5.51389C7.19896 5.59179 7.12314 5.64774 7.03302 5.65952L2.03465 6.31296C0.567991 6.5047 -0.031698 8.31183 1.05312 9.33312L4.70632 12.7724C4.77055 12.8329 4.79841 12.9201 4.78273 13.0041L3.86513 17.9186C3.59205 19.3812 5.14171 20.4835 6.43667 19.7865L10.8725 17.3989C10.9515 17.3563 11.0474 17.3563 11.1264 17.3989L15.5622 19.7865C16.8572 20.4835 18.4069 19.3812 18.1338 17.9186L17.2162 13.0041C17.2005 12.9201 17.2284 12.8329 17.2926 12.7724L20.9458 9.33312C22.0306 8.31183 21.4309 6.5047 19.9643 6.31296L14.9659 5.65952C14.8758 5.64774 14.8 5.59179 14.7625 5.51389L12.5894 0.997545Z" fill="url(#paint0_linear_74_227)"/>
<defs>
<linearGradient id="paint0_linear_74_227" x1="10.9995" y1="0" x2="10.9995" y2="20.0009" gradientUnits="userSpaceOnUse">
<stop stop-color="#F8F8F8" stop-opacity="0.9"/>
<stop offset="1" stop-color="#F8F8F8" stop-opacity="0.3"/>
</linearGradient>
</defs>
</svg>
